{
  "accessors": [
    {
      "bufferView": 2,
      "componentType": 5126,
      "count": 3779,
      "max": [
        0.3628402352333069,
        3.6463372707366943,
        1.1928746700286865
      ],
      "min": [
        -0.19726674258708954,
        0.08610391616821289,
        -1.361671805381775
      ],
      "type": "VEC3"
    },
    {
      "bufferView": 2,
      "byteOffset": 45348,
      "componentType": 5126,
      "count": 3779,
      "max": [
        1.0,
        0.9998027086257935,
        0.9999996423721313
      ],
      "min": [
        -1.0,
        -0.9999958276748657,
        -0.9999687671661377
      ],
      "type": "VEC3"
    },
    {
      "bufferView": 1,
      "componentType": 5126,
      "count": 3779,
      "max": [
        1.0000001192092896,
        1.0026781558990479
      ],
      "min": [
        -0.0007824655622243881,
        -0.0032298373989760876
      ],
      "type": "VEC2"
    },
    {
      "bufferView": 0,
      "componentType": 5125,
      "count": 18588,
      "type": "SCALAR"
    },
    {
      "bufferView": 2,
      "byteOffset": 90696,
      "componentType": 5126,
      "count": 333,
      "max": [
        0.14794054627418518,
        3.2797365188598633,
        0.46872061491012573
      ],
      "min": [
        -0.1467030793428421,
        3.0152008533477783,
        -0.6049005389213562
      ],
      "type": "VEC3"
    },
    {
      "bufferView": 2,
      "byteOffset": 94692,
      "componentType": 5126,
      "count": 333,
      "max": [
        0.9999538660049438,
        0.9999514818191528,
        0.991520345211029
      ],
      "min": [
        -0.9989896416664124,
        -0.9998691082000732,
        -0.9992712736129761
      ],
      "type": "VEC3"
    },
    {
      "bufferView": 1,
      "byteOffset": 30232,
      "componentType": 5126,
      "count": 333,
      "max": [
        1.0,
        1.0
      ],
      "min": [
        0.095238097012043,
        0.0
      ],
      "type": "VEC2"
    },
    {
      "bufferView": 0,
      "byteOffset": 74352,
      "componentType": 5125,
      "count": 1698,
      "type": "SCALAR"
    }
  ],
  "asset": {
    "extras": {
      "author": "VHSvince (https://sketchfab.com/VHSvince)",
      "license": "CC-BY-4.0 (http://creativecommons.org/licenses/by/4.0/)",
      "source": "https://sketchfab.com/3d-models/bacteria-backrooms-actually-pretty-accurate-0d481d63f87d40e9bbcab60902ddf10a",
      "title": "Bacteria - Backrooms (Actually pretty accurate)"
    },
    "generator": "Sketchfab-14.15.0",
    "version": "2.0"
  },
  "bufferViews": [
    {
      "buffer": 0,
      "byteLength": 81144,
      "name": "floatBufferViews",
      "target": 34963
    },
    {
      "buffer": 0,
      "byteLength": 32896,
      "byteOffset": 81144,
      "byteStride": 8,
      "name": "floatBufferViews",
      "target": 34962
    },
    {
      "buffer": 0,
      "byteLength": 98688,
      "byteOffset": 114040,
      "byteStride": 12,
      "name": "floatBufferViews",
      "target": 34962
    }
  ],
  "buffers": [
    {
      "byteLength": 212728,
      "uri": "scene.bin"
    }
  ],
  "materials": [
    {
      "doubleSided": true,
      "name": "Bacteria",
      "pbrMetallicRoughness": {
        "baseColorFactor": [
          0.0,
          0.0,
          0.0,
          1.0
        ],
        "metallicFactor": 0.0,
        "roughnessFactor": 0.35
      }
    }
  ],
  "meshes": [
    {
      "name": "Object_0",
      "primitives": [
        {
          "attributes": {
            "NORMAL": 1,
            "POSITION": 0,
            "TEXCOORD_0": 2
          },
          "indices": 3,
          "material": 0,
          "mode": 4
        }
      ]
    },
    {
      "name": "Object_1",
      "primitives": [
        {
          "attributes": {
            "NORMAL": 5,
            "POSITION": 4,
            "TEXCOORD_0": 6
          },
          "indices": 7,
          "material": 0,
          "mode": 4
        }
      ]
    }
  ],
  "nodes": [
    {
      "children": [
        1
      ],
      "matrix": [
        -0.47323352098464966,
        0.006811683997511668,
        0.8809106945991516,
        0.0,
        0.8809370398521423,
        0.0036591915413736248,
        0.4732193648815155,
        0.0,
        -1.1752751549742868e-16,
        0.9999700784683228,
        -0.007732316851615684,
        0.0,
        0.0,
        0.0,
        0.0,
        1.0
      ],
      "name": "Sketchfab_model"
    },
    {
      "children": [
        2
      ],
      "name": "root"
    },
    {
      "children": [
        3
      ],
      "matrix": [
        1.0,
        0.0,
        0.0,
        0.0,
        0.0,
        2.220446049250313e-16,
        1.0,
        0.0,
        0.0,
        -1.0,
        2.220446049250313e-16,
        0.0,
        0.0,
        0.0,
        0.0,
        1.0
      ],
      "name": "GLTF_SceneRootNode"
    },
    {
      "children": [
        4,
        5
      ],
      "matrix": [
        1.0,
        0.0,
        0.0,
        0.0,
        0.0,
        1.0,
        0.0,
        0.0,
        0.0,
        0.0,
        1.0,
        0.0,
        0.0,
        -0.09115657210350037,
        0.0,
        1.0
      ],
      "name": "Bacteria_1"
    },
    {
      "mesh": 0,
      "name": "Object_4"
    },
    {
      "children": [
        6
      ],
      "matrix": [
        1.0,
        0.0,
        0.0,
        0.0,
        0.0,
        1.0,
        0.0,
        0.0,
        0.0,
        0.0,
        1.0,
        0.0,
        0.0,
        0.09115657210350037,
        0.0,
        1.0
      ],
      "name": "Curve_0"
    },
    {
      "mesh": 1,
      "name": "Object_6"
    }
  ],
  "scene": 0,
  "scenes": [
    {
      "name": "Sketchfab_Scene",
      "nodes": [
        0
      ]
    }
  ]
}
